<svg xmlns="http://www.w3.org/2000/svg" xmlns:svg="http://www.w3.org/2000/svg" xmlns:xlink="http://www.w3.org/1999/xlink" id="svg8" width="848.874" height="1115.527" version="1.1" viewBox="0 0 224.598 295.15"><defs id="defs2"><marker id="marker2944" orient="auto" overflow="visible" refX="0" refY="0"><path id="path2942" fill="#000" fill-opacity="1" fill-rule="evenodd" stroke="#000" stroke-linejoin="round" stroke-opacity="1" stroke-width=".625" d="M 8.7185878,4.0337352 -2.2072895,0.01601326 8.7185884,-4.0017078 c -1.7454984,2.3720609 -1.7354408,5.6174519 -6e-7,8.035443 z" transform="scale(-0.6)"/></marker><marker id="marker2852" orient="auto" overflow="visible" refX="0" refY="0"><path id="path2850" fill="#000" fill-opacity="1" fill-rule="evenodd" stroke="#000" stroke-linejoin="round" stroke-opacity="1" stroke-width=".625" d="M 8.7185878,4.0337352 -2.2072895,0.01601326 8.7185884,-4.0017078 c -1.7454984,2.3720609 -1.7354408,5.6174519 -6e-7,8.035443 z" transform="scale(-0.6)"/></marker><marker id="marker1834" orient="auto" overflow="visible" refX="0" refY="0"><path id="path1832" fill="#000" fill-opacity="1" fill-rule="evenodd" stroke="#000" stroke-linejoin="round" stroke-opacity="1" stroke-width=".625" d="M 8.7185878,4.0337352 -2.2072895,0.01601326 8.7185884,-4.0017078 c -1.7454984,2.3720609 -1.7354408,5.6174519 -6e-7,8.035443 z" transform="scale(-0.6)"/></marker><marker id="marker1642" orient="auto" overflow="visible" refX="0" refY="0"><path id="path1640" fill="#000" fill-opacity="1" fill-rule="evenodd" stroke="#000" stroke-linejoin="round" stroke-opacity="1" stroke-width=".625" d="M 8.7185878,4.0337352 -2.2072895,0.01601326 8.7185884,-4.0017078 c -1.7454984,2.3720609 -1.7354408,5.6174519 -6e-7,8.035443 z" transform="scale(-0.6)"/></marker><marker id="marker1080" orient="auto" overflow="visible" refX="0" refY="0"><path id="path1078" fill="#000" fill-opacity="1" fill-rule="evenodd" stroke="#000" stroke-linejoin="round" stroke-opacity="1" stroke-width=".625" d="M 8.7185878,4.0337352 -2.2072895,0.01601326 8.7185884,-4.0017078 c -1.7454984,2.3720609 -1.7354408,5.6174519 -6e-7,8.035443 z" transform="scale(-0.6)"/></marker><marker id="marker9007" orient="auto" overflow="visible" refX="0" refY="0"><path id="path9005" fill="#000" fill-opacity="1" fill-rule="evenodd" stroke="#000" stroke-linejoin="round" stroke-opacity="1" stroke-width=".625" d="M 8.7185878,4.0337352 -2.2072895,0.01601326 8.7185884,-4.0017078 c -1.7454984,2.3720609 -1.7354408,5.6174519 -6e-7,8.035443 z" transform="scale(-0.6)"/></marker><marker id="marker8784" orient="auto" overflow="visible" refX="0" refY="0"><path id="path8782" fill="#000" fill-opacity="1" fill-rule="evenodd" stroke="#000" stroke-linejoin="round" stroke-opacity="1" stroke-width=".625" d="M 8.7185878,4.0337352 -2.2072895,0.01601326 8.7185884,-4.0017078 c -1.7454984,2.3720609 -1.7354408,5.6174519 -6e-7,8.035443 z" transform="scale(-0.6)"/></marker><marker id="marker7760" orient="auto" overflow="visible" refX="0" refY="0"><path id="path7758" fill="#000" fill-opacity="1" fill-rule="evenodd" stroke="#000" stroke-linejoin="round" stroke-opacity="1" stroke-width=".625" d="M 8.7185878,4.0337352 -2.2072895,0.01601326 8.7185884,-4.0017078 c -1.7454984,2.3720609 -1.7354408,5.6174519 -6e-7,8.035443 z" transform="scale(-0.6)"/></marker><marker id="marker3069" orient="auto" overflow="visible" refX="0" refY="0"><path id="path3067" fill="#000" fill-opacity="1" fill-rule="evenodd" stroke="#000" stroke-linejoin="round" stroke-opacity="1" stroke-width=".625" d="M 8.7185878,4.0337352 -2.2072895,0.01601326 8.7185884,-4.0017078 c -1.7454984,2.3720609 -1.7354408,5.6174519 -6e-7,8.035443 z" transform="scale(-0.6)"/></marker><marker id="marker2774" orient="auto" overflow="visible" refX="0" refY="0"><path id="path2772" fill="#000" fill-opacity="1" fill-rule="evenodd" stroke="#000" stroke-linejoin="round" stroke-opacity="1" stroke-width=".625" d="M 8.7185878,4.0337352 -2.2072895,0.01601326 8.7185884,-4.0017078 c -1.7454984,2.3720609 -1.7354408,5.6174519 -6e-7,8.035443 z" transform="scale(-0.6)"/></marker><marker id="Arrow2Mend" orient="auto" overflow="visible" refX="0" refY="0"><path id="path846" fill="#000" fill-opacity="1" fill-rule="evenodd" stroke="#000" stroke-linejoin="round" stroke-opacity="1" stroke-width=".625" d="M 8.7185878,4.0337352 -2.2072895,0.01601326 8.7185884,-4.0017078 c -1.7454984,2.3720609 -1.7354408,5.6174519 -6e-7,8.035443 z" transform="scale(-0.6)"/></marker><marker id="marker3069-3" orient="auto" overflow="visible" refX="0" refY="0"><path id="path3067-6" fill="#000" fill-opacity="1" fill-rule="evenodd" stroke="#000" stroke-linejoin="round" stroke-opacity="1" stroke-width=".625" d="M 8.7185878,4.0337352 -2.2072895,0.01601326 8.7185884,-4.0017078 c -1.7454984,2.3720609 -1.7354408,5.6174519 -6e-7,8.035443 z" transform="scale(-0.6)"/></marker></defs><metadata id="metadata5"/><g id="layer1" transform="translate(-1.2587235,-2.1198538)"><path marker-end="url(#marker9007)" style="marker:none" id="path8924" fill="none" fill-opacity="1" fill-rule="evenodd" stroke="#000" stroke-dasharray="none" stroke-dashoffset="0" stroke-linecap="butt" stroke-linejoin="miter" stroke-miterlimit="4" stroke-opacity="1" stroke-width=".794" marker-mid="none" marker-start="none" d="M 96.112678,149.84379 C 95.731132,135.91066 109.3533,129.23689 110.30718,110.09626 111.26106,90.955636 83.744244,93.978484 75.674582,87.301787 67.60492,80.62509 65.281862,75.744342 71.1281,71.693681 76.974338,67.64302 112.15724,57.633961 116.50534,41.706545" color="#000" display="inline" enable-background="accumulate" opacity="1" overflow="visible" vector-effect="none" visibility="visible"/><g id="g1469" transform="translate(20.676302)"><path id="path1325" fill="#fff" fill-opacity="1" fill-rule="nonzero" stroke="#000" stroke-dasharray="none" stroke-dashoffset="0" stroke-linecap="round" stroke-linejoin="miter" stroke-miterlimit="4" stroke-opacity="1" stroke-width="1.323" d="M 86.734049,5.4287021 C 81.072427,5.3399381 75.720672,9.5218576 74.43391,15.040241 c -7.828516,1.667761 -12.140531,11.522524 -8.054817,18.408398 2.354617,4.565083 7.555734,6.969772 12.542269,6.616078 10.925879,-0.0098 21.891018,0.01963 32.792348,-0.01472 6.08472,-0.04159 10.77331,-6.732669 8.78032,-12.469724 -1.41616,-5.064878 -7.41254,-8.119405 -12.33123,-6.252535 -1.61732,-3.286294 -5.2453,-5.448855 -8.905118,-5.273862 C 98.364469,10.058265 92.792178,5.329246 86.734049,5.4287021 Z" clip-rule="nonzero" color="#000" color-interpolation="sRGB" color-interpolation-filters="linearRGB" color-rendering="auto" display="inline" enable-background="accumulate" image-rendering="auto" opacity="1" overflow="visible" shape-rendering="auto" text-rendering="auto" vector-effect="none" visibility="visible" style="isolation:auto;mix-blend-mode:normal;solid-color:#000;solid-opacity:1;marker:none"/><g id="g1435" stroke-width="4.452" transform="matrix(0.05942749,0,0,0.05942749,74.459731,11.961804)"><g id="g1360" stroke-width="4.452"><g id="g1358" stroke-width="4.452"><path id="path1356" stroke-width="4.452" d="m 344.214,276.755 -43.582,-19.37 c -3.079,-1.368 -5.067,-4.429 -5.067,-7.797 V 237.62 c 14.64,-11.665 24.05,-29.628 24.05,-49.758 v -16.847 c 4.823,-2.665 8.016,-7.815 8.016,-13.583 v -1.635 c 0,-35.076 -28.537,-63.613 -63.613,-63.613 h -16.032 c -35.076,0 -63.613,28.537 -63.613,63.613 v 14.835 c 0,5.07 2.182,9.663 5.985,12.602 0.645,0.498 1.324,0.936 2.031,1.315 v 3.312 c 0,20.13 9.409,38.093 24.048,49.757 v 11.969 c 0,3.368 -1.989,6.429 -5.067,7.797 l -43.582,19.37 c -14.273,6.343 -23.496,20.535 -23.496,36.154 v 99.404 c 0,4.142 3.358,7.5 7.5,7.5 4.142,0 7.5,-3.358 7.5,-7.5 v -99.403 c 0,-0.869 0.062,-1.728 0.152,-2.58 l 20.082,20.082 c 3.125,3.126 4.847,7.281 4.847,11.702 v 70.2 c 0,4.142 3.358,7.5 7.5,7.5 4.142,0 7.5,-3.358 7.5,-7.5 v -70.2 c 0,-8.427 -3.281,-16.349 -9.24,-22.308 l -23.941,-23.942 c 2.157,-2.238 4.745,-4.093 7.689,-5.402 l 42.847,-19.043 31.775,31.775 v 109.119 c 0,4.142 3.358,7.5 7.5,7.5 4.142,0 7.5,-3.358 7.5,-7.5 V 303.194 l 31.775,-31.775 42.846,19.042 c 2.944,1.309 5.532,3.164 7.689,5.403 l -23.941,23.941 c -5.959,5.959 -9.24,13.881 -9.24,22.308 v 70.2 c 0,4.142 3.358,7.5 7.5,7.5 4.142,0 7.5,-3.358 7.5,-7.5 v -70.2 c 0,-4.42 1.721,-8.576 4.847,-11.702 L 352.56,310.33 c 0.09,0.852 0.152,1.709 0.152,2.578 v 99.404 c 0,4.142 3.358,7.5 7.5,7.5 4.142,0 7.5,-3.358 7.5,-7.5 v -99.403 c -0.003,-15.619 -9.225,-29.811 -23.498,-36.154 z M 256,289.481 228.119,261.599 c 2.12,-3.567 3.317,-7.694 3.317,-12.011 v -3.052 c 7.563,3.178 15.862,4.939 24.565,4.939 8.703,0 17.001,-1.76 24.563,-4.938 v 3.051 c 0,4.318 1.197,8.444 3.318,12.012 z m 10e-4,-53.007 c -26.805,0.001 -48.613,-21.807 -48.613,-48.612 v -3.373 c 4.68,-1.855 9.248,-4.807 13.621,-8.842 3.043,-2.809 3.234,-7.554 0.424,-10.598 -2.809,-3.043 -7.553,-3.234 -10.598,-0.425 -3.751,3.463 -7.499,5.7 -11.137,6.65 -0.088,0.023 -0.153,0.033 -0.199,0.037 -0.054,-0.105 -0.127,-0.325 -0.127,-0.678 v -14.835 c 0,-26.805 21.808,-48.613 48.613,-48.613 h 16.032 c 26.806,0 48.613,21.808 48.613,48.613 v 1.635 c 0,0.243 -0.146,0.454 -0.338,0.492 -44.911,8.87 -67.437,-7.847 -75.037,-15.447 -2.929,-2.929 -7.678,-2.929 -10.606,0 -2.929,2.929 -2.929,7.678 0,10.606 23.29,23.29 57.275,23.71 77.965,21.224 v 13.553 c 0,26.805 -21.808,48.613 -48.613,48.613 z"/></g></g><g id="g1366" stroke-width="4.452"><g id="g1364" stroke-width="4.452"><path id="path1362" stroke-width="4.452" d="m 135.242,235.961 v -16.035 c 0,-19.566 -10.168,-36.79 -25.489,-46.702 0.946,-3.035 1.44,-6.214 1.44,-9.411 0,-17.396 -14.152,-31.548 -31.548,-31.548 -17.396,0 -31.548,14.153 -31.548,31.548 0,3.237 0.49,6.385 1.438,9.413 -15.32,9.911 -25.487,27.135 -25.487,46.7 v 16.032 c 0,18.947 9.533,35.701 24.048,45.743 v 16.493 c 0,3.253 -1.807,6.177 -4.716,7.632 l -25.941,12.97 C 6.682,324.176 0,334.988 0,347.015 v 65.299 c 0,4.142 3.358,7.5 7.5,7.5 4.142,0 7.5,-3.358 7.5,-7.5 v -62.055 l 12.218,12.218 c 3.125,3.126 4.847,7.281 4.847,11.702 v 38.135 c 0,4.142 3.358,7.5 7.5,7.5 4.142,0 7.5,-3.358 7.5,-7.5 v -38.135 c 0,-8.427 -3.282,-16.349 -9.24,-22.308 L 20.82,334.866 c -0.082,-0.082 -0.17,-0.153 -0.254,-0.23 1.067,-0.942 2.264,-1.762 3.582,-2.422 l 25.941,-12.97 c 1.329,-0.665 2.566,-1.45 3.719,-2.322 l 18.337,18.338 v 77.055 c 0,4.142 3.358,7.5 7.5,7.5 4.142,0 7.5,-3.358 7.5,-7.5 v -77.056 l 18.338,-18.338 c 1.154,0.873 2.39,1.658 3.719,2.322 l 7.153,3.577 c 1.077,0.539 2.221,0.794 3.349,0.794 2.751,0 5.4,-1.52 6.714,-4.147 1.853,-3.705 0.351,-8.21 -3.354,-10.062 l -7.153,-3.577 c -2.91,-1.455 -4.717,-4.379 -4.717,-7.631 v -16.493 c 14.515,-10.042 24.048,-26.797 24.048,-45.743 z M 79.645,147.265 c 9.125,0 16.548,7.424 16.548,16.548 0,1.005 -0.09,1.99 -0.262,2.955 -5.154,-1.582 -10.621,-2.439 -16.286,-2.439 -5.657,0 -11.117,0.854 -16.263,2.432 -0.173,-0.965 -0.285,-1.945 -0.285,-2.948 0,-9.125 7.423,-16.548 16.548,-16.548 z m 0,32.065 c 22.385,0 40.597,18.212 40.597,40.597 v 2.718 c -31.225,9.56 -49.834,-14.193 -50.629,-15.234 -1.305,-1.739 -3.3,-2.827 -5.468,-2.981 -2.168,-0.152 -4.298,0.641 -5.835,2.178 -7.159,7.159 -14.171,10.612 -19.235,12.279 0.555,-21.906 18.534,-39.557 40.57,-39.557 z m 0,142.215 -17.331,-17.331 c 0.506,-1.934 0.783,-3.95 0.783,-6.019 v -9.155 c 5.229,1.634 10.788,2.515 16.548,2.515 5.76,0 11.319,-0.881 16.548,-2.515 v 9.155 c 0,2.069 0.277,4.086 0.783,6.019 z m 0,-44.99 c -22.385,0 -40.597,-18.212 -40.597,-40.597 v -1.554 c 5.981,-1.374 14.849,-4.567 24.1,-12.007 3.273,3.088 7.951,6.876 13.908,10.125 7.046,3.843 16.777,7.398 28.663,7.398 4.517,0 9.35,-0.525 14.459,-1.731 -1.163,21.352 -18.897,38.366 -40.533,38.366 z"/></g></g><g id="g1372" stroke-width="4.452"><g id="g1370" stroke-width="4.452"><path id="path1368" stroke-width="4.452" d="m 494.561,302.765 -41.973,-20.987 c -2.909,-1.455 -4.716,-4.379 -4.716,-7.631 v -10.629 c 9.825,-8.723 16.032,-21.435 16.032,-35.575 v -8.537 c 0.173,0 0.343,0.005 0.516,0.005 4.142,0 7.5,-3.358 7.5,-7.5 v -16.032 c 0,-26.236 -21.345,-47.581 -47.581,-47.581 h -16.032 c -26.236,0 -47.581,21.345 -47.581,47.581 v 16.032 c 0,4.142 3.358,7.5 7.5,7.5 0.062,0 0.242,-0.002 0.516,-0.013 v 8.545 c 0,14.141 6.208,26.853 16.033,35.576 v 10.629 c 0,3.253 -1.807,6.177 -4.717,7.631 -3.705,1.852 -5.207,6.357 -3.354,10.062 1.314,2.628 3.963,4.148 6.714,4.148 1.127,0 2.271,-0.255 3.348,-0.793 1.329,-0.665 2.566,-1.45 3.719,-2.322 l 18.338,18.338 v 101.103 c 0,4.142 3.358,7.5 7.5,7.5 4.142,0 7.5,-3.358 7.5,-7.5 V 311.21 l 18.337,-18.338 c 1.154,0.873 2.39,1.658 3.719,2.322 l 40.615,20.308 -12.319,12.319 c -5.958,5.959 -9.24,13.881 -9.24,22.308 v 62.184 c 0,4.142 3.358,7.5 7.5,7.5 4.142,0 7.5,-3.358 7.5,-7.5 v -62.184 c 0,-4.42 1.721,-8.576 4.847,-11.702 l 11.669,-11.669 c 0.354,1.357 0.548,2.772 0.548,4.224 v 81.331 c 0,4.142 3.358,7.5 7.5,7.5 4.142,0 7.5,-3.358 7.5,-7.5 V 330.982 C 512,318.956 505.318,308.144 494.561,302.765 Z M 375.725,202.868 v -6.99 h 10e-4 c 0,-17.965 14.616,-32.581 32.581,-32.581 h 16.032 c 17.965,0 32.581,14.616 32.581,32.581 v 8.331 c -32.603,-1.759 -52.278,-14.446 -52.469,-14.571 -1.269,-0.846 -2.717,-1.26 -4.158,-1.26 -1.936,0 -3.856,0.748 -5.306,2.197 -7.176,7.176 -14.207,10.63 -19.262,12.293 z m 40.598,94.629 -17.331,-17.331 c 0.506,-1.934 0.783,-3.95 0.783,-6.019 v -1.597 c 5.156,1.919 10.731,2.973 16.548,2.973 5.817,0 11.392,-1.054 16.548,-2.973 v 1.597 c 0,2.069 0.276,4.085 0.783,6.019 z m 0,-36.973 c -17.965,0 -32.581,-14.615 -32.581,-32.581 v -12.091 0 c 5.253,-2.099 11.373,-5.436 17.601,-10.742 7.876,4.098 24.354,11.181 47.561,13.521 v 9.312 c 0,17.965 -14.616,32.581 -32.581,32.581 z"/></g></g></g></g><g id="g1550" transform="translate(-134.14376,-82.55)"><g id="g1517" transform="matrix(0.67197905,0,0,0.67197905,119.0306,50.275617)"><rect id="rect1493" width="32.268" height="24.161" x="45.357" y="65.708" fill="#fff" fill-opacity="1" fill-rule="nonzero" stroke="#545454" stroke-dasharray="none" stroke-dashoffset="0" stroke-linecap="round" stroke-linejoin="miter" stroke-miterlimit="4" stroke-opacity="1" stroke-width="2.646" clip-rule="nonzero" color="#000" color-interpolation="sRGB" color-interpolation-filters="linearRGB" color-rendering="auto" display="inline" enable-background="accumulate" image-rendering="auto" opacity="1" overflow="visible" shape-rendering="auto" text-rendering="auto" vector-effect="none" visibility="visible" style="isolation:auto;mix-blend-mode:normal;solid-color:#000;solid-opacity:1;marker:none"/><g id="g1515"><circle clip-rule="nonzero" style="isolation:auto;mix-blend-mode:normal;solid-color:#000;solid-opacity:1;marker:none" id="circle1509" cx="46.239" cy="89.064" r="6.815" fill="#060606" fill-opacity="1" fill-rule="nonzero" stroke="none" stroke-dasharray="none" stroke-dashoffset="0" stroke-linecap="round" stroke-linejoin="miter" stroke-miterlimit="4" stroke-opacity="1" stroke-width="2.646" color="#000" color-interpolation="sRGB" color-interpolation-filters="linearRGB" color-rendering="auto" display="inline" enable-background="accumulate" image-rendering="auto" opacity="1" overflow="visible" shape-rendering="auto" text-rendering="auto" vector-effect="none" visibility="visible"/><text id="text1513" x="40.59" y="90.938" fill="#fff" fill-opacity="1" stroke="none" stroke-linecap="butt" stroke-linejoin="miter" stroke-opacity="1" stroke-width=".212" font-family="sans-serif" font-size="5.147" font-stretch="normal" font-style="normal" font-variant="normal" font-weight="normal" letter-spacing="0" text-anchor="start" word-spacing="0" xml:space="preserve" style="line-height:3.21694064px;-inkscape-font-specification:sans-serif;text-align:start"><tspan id="tspan1511" x="40.59" y="90.938" fill="#fff" fill-opacity="1" stroke-width=".212" font-family="sans-serif" font-stretch="normal" font-style="normal" font-variant="normal" font-weight="normal" letter-spacing="0" style="-inkscape-font-specification:sans-serif">DNS</tspan></text></g></g><text id="text1530" x="156.12" y="101.964" fill="#1062d8" fill-opacity="1" stroke="none" stroke-dasharray="none" stroke-dashoffset="0" stroke-linecap="butt" stroke-linejoin="miter" stroke-miterlimit="4" stroke-opacity="1" stroke-width=".22" font-family="sans-serif" font-size="5.572" font-stretch="normal" font-style="normal" font-variant="normal" font-weight="normal" letter-spacing="0" opacity="1" text-anchor="start" vector-effect="none" word-spacing="0" xml:space="preserve" style="line-height:5.22340393px;-inkscape-font-specification:sans-serif;text-align:start"><tspan id="tspan1528" x="156.12" y="101.964" fill="#1062d8" fill-opacity="1" stroke="none" stroke-dasharray="none" stroke-dashoffset="0" stroke-linecap="butt" stroke-linejoin="miter" stroke-miterlimit="4" stroke-opacity="1" stroke-width=".22" font-family="sans-serif" font-size="5.572" font-stretch="normal" font-style="normal" font-variant="normal" font-weight="normal" vector-effect="none" style="-inkscape-font-specification:sans-serif">.203</tspan><tspan id="tspan1532" x="156.12" y="107.188" fill="#1062d8" fill-opacity="1" stroke="none" stroke-dasharray="none" stroke-dashoffset="0" stroke-linecap="butt" stroke-linejoin="miter" stroke-miterlimit="4" stroke-opacity="1" stroke-width=".22" font-family="sans-serif" font-size="5.572" font-stretch="normal" font-style="normal" font-variant="normal" font-weight="normal" vector-effect="none" style="-inkscape-font-specification:sans-serif">.204</tspan></text></g><use id="use1552" width="100%" height="100%" x="0" y="0" transform="translate(8.9958336,8.9958336)" xlink:href="#g1550"/><path id="path3000" fill="none" fill-opacity="1" fill-rule="evenodd" stroke="#000" stroke-dasharray="none" stroke-dashoffset="0" stroke-linecap="butt" stroke-linejoin="miter" stroke-miterlimit="4" stroke-opacity="1" stroke-width=".794" marker-end="url(#marker3069)" marker-mid="none" marker-start="none" d="M 110.65547,39.6297 C 110.10325,68.702511 30.330147,49.932 44.622207,70.913023 58.914266,91.894047 59.193302,101.94534 59.109826,114.15259 m 0,0 c -0.178037,14.9944 4.78189,21.03849 17.227091,21.51106 12.4452,0.47257 14.972421,-0.42805 14.989725,12.42642" color="#000" display="inline" enable-background="accumulate" opacity="1" overflow="visible" vector-effect="none" visibility="visible" style="marker:none"/><g id="g2019"><rect id="rect2023" width="19.332" height="10.477" x="4.148" y="55.281" fill="#545454" fill-opacity="1" fill-rule="nonzero" stroke="none" stroke-dasharray="none" stroke-dashoffset="0" stroke-linecap="round" stroke-linejoin="miter" stroke-miterlimit="4" stroke-opacity="1" stroke-width=".262" clip-rule="nonzero" color="#000" color-interpolation="sRGB" color-interpolation-filters="linearRGB" color-rendering="auto" display="inline" enable-background="accumulate" image-rendering="auto" opacity="1" overflow="visible" shape-rendering="auto" text-rendering="auto" vector-effect="none" visibility="visible" style="isolation:auto;mix-blend-mode:normal;solid-color:#000;solid-opacity:1;marker:none"/><g id="g1564" transform="translate(0.54344722,5.2916423)"><g id="g1201" transform="matrix(0.67197905,0,0,0.67197905,-26.202888,-33.838167)"><circle id="path815" cx="105" cy="148.5" r="13.711" fill="#fff" fill-opacity="1" fill-rule="nonzero" stroke="#545454" stroke-dasharray="none" stroke-dashoffset="0" stroke-linecap="round" stroke-linejoin="miter" stroke-miterlimit="4" stroke-opacity="1" stroke-width="2.646" clip-rule="nonzero" color="#000" color-interpolation="sRGB" color-interpolation-filters="linearRGB" color-rendering="auto" display="inline" enable-background="accumulate" image-rendering="auto" opacity="1" overflow="visible" shape-rendering="auto" text-rendering="auto" vector-effect="none" visibility="visible" style="isolation:auto;mix-blend-mode:normal;solid-color:#000;solid-opacity:1;marker:none"/><g id="g1191" transform="translate(54.212117,72.325707)"><g id="g1165"><path id="path817" fill="none" fill-rule="evenodd" stroke="#1062d8" stroke-dasharray="none" stroke-linecap="butt" stroke-linejoin="miter" stroke-miterlimit="4" stroke-opacity="1" stroke-width="2.646" d="m 53.294642,66.169939 v 7.605591 h 4.875891"/><path id="path1161" fill="#1062d8" fill-opacity="1" fill-rule="evenodd" stroke="none" stroke-linecap="butt" stroke-linejoin="miter" stroke-opacity="1" stroke-width=".415" d="m 56.539675,70.821816 v 5.907427 l 5.216299,-2.953713 z"/></g><use id="use1179" width="100%" height="100%" x="0" y="0" transform="rotate(90,50.740636,76.363282)" xlink:href="#g1165"/><use id="use1181" width="100%" height="100%" x="0" y="0" transform="rotate(180,50.787883,76.363281)" xlink:href="#g1165"/><use id="use1183" width="100%" height="100%" x="0" y="0" transform="rotate(-90,50.598894,76.127046)" xlink:href="#g1165"/></g></g><use id="use1437" width="100%" height="100%" x="0" y="0" transform="translate(26.19375,0.79375)" xlink:href="#g1201"/></g><g id="g1786" transform="translate(0,5.2916667)"><g id="g1278" transform="matrix(0.67197905,0,0,0.67197905,-13.526342,56.588522)"><rect id="rect1203" width="32.268" height="24.161" x="45.357" y="65.708" fill="#fff" fill-opacity="1" fill-rule="nonzero" stroke="#545454" stroke-dasharray="none" stroke-dashoffset="0" stroke-linecap="round" stroke-linejoin="miter" stroke-miterlimit="4" stroke-opacity="1" stroke-width="2.646" clip-rule="nonzero" color="#000" color-interpolation="sRGB" color-interpolation-filters="linearRGB" color-rendering="auto" display="inline" enable-background="accumulate" image-rendering="auto" opacity="1" overflow="visible" shape-rendering="auto" text-rendering="auto" vector-effect="none" visibility="visible" style="isolation:auto;mix-blend-mode:normal;solid-color:#000;solid-opacity:1;marker:none"/><g id="g1253" transform="translate(-10.397378,35.70972)"><g id="g1239"><path id="path817-6" fill="none" fill-rule="evenodd" stroke="#1062d8" stroke-dasharray="none" stroke-linecap="butt" stroke-linejoin="miter" stroke-miterlimit="4" stroke-opacity="1" stroke-width="2.646" d="m 59.305949,42.079018 h 8.350395"/><path id="path1161-7" fill="#1062d8" fill-opacity="1" fill-rule="evenodd" stroke="none" stroke-linecap="butt" stroke-linejoin="miter" stroke-opacity="1" stroke-width=".415" d="m 66.025486,39.125305 v 5.907426 l 5.216299,-2.953713 z"/></g><use id="use1241" width="100%" height="100%" x="0" y="0" transform="translate(13.229165)" xlink:href="#g1239"/><use id="use1243" width="100%" height="100%" x="0" y="0" transform="rotate(-22.31308,57.663114,8.5394343)" xlink:href="#g1239"/><use id="use1245" width="100%" height="100%" x="0" y="0" transform="matrix(0.92512307,0.37966736,0.37966736,-0.92512307,1.0754926,61.625827)" xlink:href="#g1239"/></g><g id="g1264"><circle clip-rule="nonzero" style="isolation:auto;mix-blend-mode:normal;solid-color:#000;solid-opacity:1;marker:none" id="path1255" cx="46.239" cy="89.064" r="6.815" fill="#060606" fill-opacity="1" fill-rule="nonzero" stroke="none" stroke-dasharray="none" stroke-dashoffset="0" stroke-linecap="round" stroke-linejoin="miter" stroke-miterlimit="4" stroke-opacity="1" stroke-width="2.646" color="#000" color-interpolation="sRGB" color-interpolation-filters="linearRGB" color-rendering="auto" display="inline" enable-background="accumulate" image-rendering="auto" opacity="1" overflow="visible" shape-rendering="auto" text-rendering="auto" vector-effect="none" visibility="visible"/><text id="text1259" x="42.265" y="91.41" fill="#fff" fill-opacity="1" stroke="none" stroke-linecap="butt" stroke-linejoin="miter" stroke-opacity="1" stroke-width=".265" font-family="sans-serif" font-size="6.435" font-stretch="normal" font-style="normal" font-variant="normal" font-weight="normal" letter-spacing="0" text-anchor="start" word-spacing="0" xml:space="preserve" style="line-height:4.02216768px;-inkscape-font-specification:sans-serif;text-align:start"><tspan id="tspan1257" x="42.265" y="91.41" fill="#fff" fill-opacity="1" stroke-width=".265" font-family="sans-serif" font-stretch="normal" font-style="normal" font-variant="normal" font-weight="normal" letter-spacing="0" style="-inkscape-font-specification:sans-serif">L4</tspan></text></g></g><use id="use1475" width="100%" height="100%" x="0" y="0" transform="translate(31.750001)" xlink:href="#g1278"/><use id="use1477" width="100%" height="100%" x="0" y="0" transform="translate(63.500003)" xlink:href="#g1278"/></g><g id="g1765" transform="translate(5.291667,5.2916667)"><g id="g1304" transform="matrix(0.67197905,0,0,0.67197905,-18.818009,100.75934)"><rect id="rect1280" width="32.268" height="24.161" x="45.357" y="65.708" fill="#fff" fill-opacity="1" fill-rule="nonzero" stroke="#545454" stroke-dasharray="none" stroke-dashoffset="0" stroke-linecap="round" stroke-linejoin="miter" stroke-miterlimit="4" stroke-opacity="1" stroke-width="2.646" clip-rule="nonzero" color="#000" color-interpolation="sRGB" color-interpolation-filters="linearRGB" color-rendering="auto" display="inline" enable-background="accumulate" image-rendering="auto" opacity="1" overflow="visible" shape-rendering="auto" text-rendering="auto" vector-effect="none" visibility="visible" style="isolation:auto;mix-blend-mode:normal;solid-color:#000;solid-opacity:1;marker:none"/><g id="g1294" transform="translate(-10.397378,35.70972)"><g id="g1286"><path id="path1282" fill="none" fill-rule="evenodd" stroke="#1062d8" stroke-dasharray="none" stroke-linecap="butt" stroke-linejoin="miter" stroke-miterlimit="4" stroke-opacity="1" stroke-width="2.646" d="m 59.305949,42.079018 h 8.350395"/><path id="path1284" fill="#1062d8" fill-opacity="1" fill-rule="evenodd" stroke="none" stroke-linecap="butt" stroke-linejoin="miter" stroke-opacity="1" stroke-width=".415" d="m 66.025486,39.125305 v 5.907426 l 5.216299,-2.953713 z"/></g><use id="use1288" width="100%" height="100%" x="0" y="0" transform="translate(13.229165)" xlink:href="#g1239"/><use id="use1290" width="100%" height="100%" x="0" y="0" transform="rotate(-22.31308,57.663114,8.5394343)" xlink:href="#g1239"/><use id="use1292" width="100%" height="100%" x="0" y="0" transform="matrix(0.92512307,0.37966736,0.37966736,-0.92512307,1.0754926,61.625827)" xlink:href="#g1239"/></g><g id="g1302"><circle id="circle1296" cx="46.239" cy="89.064" r="6.815" fill="#060606" fill-opacity="1" fill-rule="nonzero" stroke="none" stroke-dasharray="none" stroke-dashoffset="0" stroke-linecap="round" stroke-linejoin="miter" stroke-miterlimit="4" stroke-opacity="1" stroke-width="2.646" clip-rule="nonzero" color="#000" color-interpolation="sRGB" color-interpolation-filters="linearRGB" color-rendering="auto" display="inline" enable-background="accumulate" image-rendering="auto" opacity="1" overflow="visible" shape-rendering="auto" text-rendering="auto" vector-effect="none" visibility="visible" style="isolation:auto;mix-blend-mode:normal;solid-color:#000;solid-opacity:1;marker:none"/><text id="text1300" x="42.265" y="91.41" fill="#fff" fill-opacity="1" stroke="none" stroke-linecap="butt" stroke-linejoin="miter" stroke-opacity="1" stroke-width=".265" font-family="sans-serif" font-size="6.435" font-stretch="normal" font-style="normal" font-variant="normal" font-weight="normal" letter-spacing="0" text-anchor="start" word-spacing="0" xml:space="preserve" style="line-height:4.02216768px;-inkscape-font-specification:sans-serif;text-align:start"><tspan id="tspan1298" x="42.265" y="91.41" fill="#fff" fill-opacity="1" stroke-width=".265" font-family="sans-serif" font-stretch="normal" font-style="normal" font-variant="normal" font-weight="normal" letter-spacing="0" style="-inkscape-font-specification:sans-serif">L7</tspan></text></g></g><use id="use1481" width="100%" height="100%" x="0" y="0" transform="translate(31.750001)" xlink:href="#g1304"/><use id="use1483" width="100%" height="100%" x="0" y="0" transform="translate(63.500003)" xlink:href="#g1304"/></g><g id="g1769" transform="translate(10.583334,5.2916667)"><use id="use1487" width="100%" height="100%" x="0" y="0" transform="translate(10.583333,26.458334)" xlink:href="#g1304"/><use id="use1489" width="100%" height="100%" x="0" y="0" transform="translate(42.333335,26.458334)" xlink:href="#g1304"/></g><rect id="rect1843" width="107.685" height="239.09" x="4.153" y="55.286" fill="none" fill-opacity="1" fill-rule="nonzero" stroke="#545454" stroke-dasharray="none" stroke-dashoffset="0" stroke-linecap="round" stroke-linejoin="miter" stroke-miterlimit="4" stroke-opacity="1" stroke-width=".496" clip-rule="nonzero" color="#000" color-interpolation="sRGB" color-interpolation-filters="linearRGB" color-rendering="auto" display="inline" enable-background="accumulate" image-rendering="auto" opacity="1" overflow="visible" shape-rendering="auto" text-rendering="auto" vector-effect="none" visibility="visible" style="isolation:auto;mix-blend-mode:normal;solid-color:#000;solid-opacity:1;marker:none"/><g id="g1943" transform="translate(-1.2942133e-6,10.583333)"><g id="g1726" transform="translate(-13.494452,5.2916667)"><g id="g1666" transform="translate(-124.35417,116.68125)"><g id="g1658" transform="matrix(0.67197905,0,0,0.67197905,119.0306,50.275617)"><rect id="rect1644" width="32.268" height="24.161" x="45.357" y="65.708" fill="#fff" fill-opacity="1" fill-rule="nonzero" stroke="#545454" stroke-dasharray="none" stroke-dashoffset="0" stroke-linecap="round" stroke-linejoin="miter" stroke-miterlimit="4" stroke-opacity="1" stroke-width="2.646" clip-rule="nonzero" color="#000" color-interpolation="sRGB" color-interpolation-filters="linearRGB" color-rendering="auto" display="inline" enable-background="accumulate" image-rendering="auto" opacity="1" overflow="visible" shape-rendering="auto" text-rendering="auto" vector-effect="none" visibility="visible" style="isolation:auto;mix-blend-mode:normal;solid-color:#000;solid-opacity:1;marker:none"/><g id="g1656"><circle clip-rule="nonzero" style="isolation:auto;mix-blend-mode:normal;solid-color:#000;solid-opacity:1;marker:none" id="circle1650" cx="46.239" cy="89.064" r="6.815" fill="#060606" fill-opacity="1" fill-rule="nonzero" stroke="none" stroke-dasharray="none" stroke-dashoffset="0" stroke-linecap="round" stroke-linejoin="miter" stroke-miterlimit="4" stroke-opacity="1" stroke-width="2.646" color="#000" color-interpolation="sRGB" color-interpolation-filters="linearRGB" color-rendering="auto" display="inline" enable-background="accumulate" image-rendering="auto" opacity="1" overflow="visible" shape-rendering="auto" text-rendering="auto" vector-effect="none" visibility="visible"/><text id="text1654" x="42.963" y="85.302" fill="#fff" fill-opacity="1" stroke="none" stroke-linecap="butt" stroke-linejoin="miter" stroke-opacity="1" stroke-width=".178" font-family="sans-serif" font-size="4.331" font-stretch="normal" font-style="normal" font-variant="normal" font-weight="normal" letter-spacing="-.197" text-anchor="start" transform="scale(0.9400326,1.0637929)" word-spacing="0" xml:space="preserve" style="line-height:2.70670748px;-inkscape-font-specification:sans-serif;text-align:start"><tspan id="tspan1652" x="42.963" y="85.302" fill="#fff" fill-opacity="1" stroke-width=".178" font-family="sans-serif" font-stretch="normal" font-style="normal" font-variant="normal" font-weight="normal" letter-spacing="-.197" style="-inkscape-font-specification:sans-serif">WWW</tspan></text></g></g></g><g id="g1695" transform="matrix(0.08366843,0,0,0.08366843,29.515121,211.47939)"><title id="title1689">Layer 1</title><g id="layer1-6"><g id="g2344"><path id="rect2324" fill="#aad4ff" fill-opacity="0" stroke="#000" stroke-dashoffset="0" stroke-linecap="round" stroke-linejoin="round" stroke-miterlimit="4" stroke-width="3.75" d="m 26.35516,42.21759 v 9.352081 H 17.705111 V 143.03448 H 139.65822 V 51.569671 H 54.51167 V 42.21759 Z"/><rect id="rect2328" width="121.953" height="84.672" x="81.527" y="71.412" fill="#1062d8" fill-opacity="1" stroke="#000" stroke-dashoffset="0" stroke-linecap="round" stroke-linejoin="round" stroke-miterlimit="4" stroke-width="3.608" transform="matrix(1,0,-0.397105,0.917773,0,0)"/></g></g></g></g><g id="g1905" transform="translate(-1.0583333)"><use id="use1728" width="100%" height="100%" x="0" y="0" transform="translate(11.641667,10.583333)" xlink:href="#g1726"/><use id="use1788" width="100%" height="100%" x="0" y="0" transform="translate(22.225001,21.166667)" xlink:href="#g1726"/><use id="use1790" width="100%" height="100%" x="0" y="0" transform="translate(32.808335,31.750001)" xlink:href="#g1726"/><use id="use1817" width="100%" height="100%" x="0" y="0" transform="translate(43.391669,42.333335)" xlink:href="#g1726"/></g><g id="g1915" transform="translate(30.691667,-15.875)"><use id="use1907" width="100%" height="100%" x="0" y="0" transform="translate(11.641667,10.583333)" xlink:href="#g1726"/><use id="use1909" width="100%" height="100%" x="0" y="0" transform="translate(22.225001,21.166667)" xlink:href="#g1726"/><use id="use1911" width="100%" height="100%" x="0" y="0" transform="translate(32.808335,31.750001)" xlink:href="#g1726"/><use id="use1913" width="100%" height="100%" x="0" y="0" transform="translate(43.391669,42.333335)" xlink:href="#g1726"/></g></g></g><use id="use2021" width="100%" height="100%" x="0" y="0" transform="translate(111.12501)" xlink:href="#g2019"/><text id="text2028" x="5.967" y="63.226" fill="#fff" fill-opacity="1" stroke="none" stroke-linecap="butt" stroke-linejoin="miter" stroke-opacity="1" stroke-width=".186" font-family="sans-serif" font-size="7.435" font-stretch="normal" font-style="normal" font-variant="normal" font-weight="normal" letter-spacing="0" text-anchor="start" word-spacing="0" xml:space="preserve" style="line-height:4.64686203px;-inkscape-font-specification:sans-serif;text-align:start"><tspan id="tspan2026" x="5.967" y="63.226" fill="#fff" fill-opacity="1" stroke-width=".186" font-family="sans-serif" font-stretch="normal" font-style="normal" font-variant="normal" font-weight="normal" style="-inkscape-font-specification:sans-serif">DC1</tspan></text><text id="text2032" x="117.092" y="63.226" fill="#fff" fill-opacity="1" stroke="none" stroke-linecap="butt" stroke-linejoin="miter" stroke-opacity="1" stroke-width=".186" font-family="sans-serif" font-size="7.435" font-stretch="normal" font-style="normal" font-variant="normal" font-weight="normal" letter-spacing="0" text-anchor="start" word-spacing="0" xml:space="preserve" style="line-height:4.64686203px;-inkscape-font-specification:sans-serif;text-align:start"><tspan id="tspan2030" x="117.092" y="63.226" fill="#fff" fill-opacity="1" stroke-width=".186" font-family="sans-serif" font-stretch="normal" font-style="normal" font-variant="normal" font-weight="normal" style="-inkscape-font-specification:sans-serif">DC2</tspan></text><path id="path2060" fill="none" fill-rule="evenodd" stroke="#000" stroke-dasharray="none" stroke-linecap="butt" stroke-linejoin="miter" stroke-miterlimit="4" stroke-opacity="1" stroke-width=".794" marker-end="url(#Arrow2Mend)" d="M 77.899962,23.16133 H 52.587887"/><path id="path2770" fill="none" fill-rule="evenodd" stroke="#000" stroke-dasharray="none" stroke-linecap="butt" stroke-linejoin="miter" stroke-miterlimit="4" stroke-opacity="1" stroke-width=".794" marker-end="url(#marker2774)" d="M 56.150368,26.336332 H 81.462443"/><g id="g2058" transform="translate(129.37659,-86.554697)"><circle id="path1255-0" cx="-62.351" cy="111.304" r="4.58" fill="#fc8300" fill-opacity="1" fill-rule="nonzero" stroke="none" stroke-dasharray="none" stroke-dashoffset="0" stroke-linecap="round" stroke-linejoin="miter" stroke-miterlimit="4" stroke-opacity="1" stroke-width="1.778" clip-rule="nonzero" color="#000" color-interpolation="sRGB" color-interpolation-filters="linearRGB" color-rendering="auto" display="inline" enable-background="accumulate" image-rendering="auto" opacity="1" overflow="visible" shape-rendering="auto" text-rendering="auto" vector-effect="none" visibility="visible" style="isolation:auto;mix-blend-mode:normal;solid-color:#000;solid-opacity:1;marker:none"/><text id="text1259-0" x="-64.774" y="114.004" fill="#fff" fill-opacity="1" stroke="none" stroke-linecap="butt" stroke-linejoin="miter" stroke-opacity="1" stroke-width=".305" font-family="sans-serif" font-size="7.409" font-stretch="normal" font-style="normal" font-variant="normal" font-weight="normal" letter-spacing="0" text-anchor="start" word-spacing="0" xml:space="preserve" style="line-height:4.63092184px;-inkscape-font-specification:sans-serif;text-align:start"><tspan id="tspan1257-7" x="-64.774" y="114.004" fill="#fff" fill-opacity="1" stroke-width=".305" font-family="sans-serif" font-stretch="normal" font-style="normal" font-variant="normal" font-weight="normal" letter-spacing="0" style="-inkscape-font-specification:sans-serif">1</tspan></text></g><g id="g6346" transform="translate(118.64606,-20.405084)"><circle clip-rule="nonzero" style="isolation:auto;mix-blend-mode:normal;solid-color:#000;solid-opacity:1;marker:none" id="circle6340" cx="-62.351" cy="111.304" r="4.58" fill="#fc8300" fill-opacity="1" fill-rule="nonzero" stroke="none" stroke-dasharray="none" stroke-dashoffset="0" stroke-linecap="round" stroke-linejoin="miter" stroke-miterlimit="4" stroke-opacity="1" stroke-width="1.778" color="#000" color-interpolation="sRGB" color-interpolation-filters="linearRGB" color-rendering="auto" display="inline" enable-background="accumulate" image-rendering="auto" opacity="1" overflow="visible" shape-rendering="auto" text-rendering="auto" vector-effect="none" visibility="visible"/><text id="text6344" x="-64.609" y="114.053" fill="#fff" fill-opacity="1" stroke="none" stroke-linecap="butt" stroke-linejoin="miter" stroke-opacity="1" stroke-width=".305" font-family="sans-serif" font-size="7.409" font-stretch="normal" font-style="normal" font-variant="normal" font-weight="normal" letter-spacing="0" text-anchor="start" word-spacing="0" xml:space="preserve" style="line-height:4.63092184px;-inkscape-font-specification:sans-serif;text-align:start"><tspan id="tspan6342" x="-64.609" y="114.053" fill="#fff" fill-opacity="1" stroke-width=".305" font-family="sans-serif" font-stretch="normal" font-style="normal" font-variant="normal" font-weight="normal" letter-spacing="0" style="-inkscape-font-specification:sans-serif">2</tspan></text></g><g id="g8922"><path id="path7754" fill="none" fill-rule="evenodd" stroke="#000" stroke-dasharray="none" stroke-linecap="butt" stroke-linejoin="miter" stroke-miterlimit="4" stroke-opacity="1" stroke-width=".794" marker-end="url(#marker7760)" d="M 91.997607,237.75882 V 168.78229"/><path id="path7756" fill="none" fill-rule="evenodd" stroke="#000" stroke-dasharray="none" stroke-linecap="butt" stroke-linejoin="miter" stroke-miterlimit="4" stroke-opacity="1" stroke-width=".794" marker-end="url(#marker8784)" d="m 95.560087,172.00807 v 68.44734"/></g><g id="g7734" transform="translate(156.13027,94.81951)"><circle id="circle7728" cx="-62.351" cy="111.304" r="4.58" fill="#fc8300" fill-opacity="1" fill-rule="nonzero" stroke="none" stroke-dasharray="none" stroke-dashoffset="0" stroke-linecap="round" stroke-linejoin="miter" stroke-miterlimit="4" stroke-opacity="1" stroke-width="1.778" clip-rule="nonzero" color="#000" color-interpolation="sRGB" color-interpolation-filters="linearRGB" color-rendering="auto" display="inline" enable-background="accumulate" image-rendering="auto" opacity="1" overflow="visible" shape-rendering="auto" text-rendering="auto" vector-effect="none" visibility="visible" style="isolation:auto;mix-blend-mode:normal;solid-color:#000;solid-opacity:1;marker:none"/><text id="text7732" x="-64.694" y="114.001" fill="#fff" fill-opacity="1" stroke="none" stroke-linecap="butt" stroke-linejoin="miter" stroke-opacity="1" stroke-width=".305" font-family="sans-serif" font-size="7.409" font-stretch="normal" font-style="normal" font-variant="normal" font-weight="normal" letter-spacing="0" text-anchor="start" word-spacing="0" xml:space="preserve" style="line-height:4.63092184px;-inkscape-font-specification:sans-serif;text-align:start"><tspan id="tspan7730" x="-64.694" y="114.001" fill="#fff" fill-opacity="1" stroke-width=".305" font-family="sans-serif" font-stretch="normal" font-style="normal" font-variant="normal" font-weight="normal" letter-spacing="0" style="-inkscape-font-specification:sans-serif">3</tspan></text></g><g id="g8900" transform="translate(158.00116,-17.144801)"><circle clip-rule="nonzero" style="isolation:auto;mix-blend-mode:normal;solid-color:#000;solid-opacity:1;marker:none" id="circle8894" cx="-62.351" cy="111.304" r="4.58" fill="#fc8300" fill-opacity="1" fill-rule="nonzero" stroke="none" stroke-dasharray="none" stroke-dashoffset="0" stroke-linecap="round" stroke-linejoin="miter" stroke-miterlimit="4" stroke-opacity="1" stroke-width="1.778" color="#000" color-interpolation="sRGB" color-interpolation-filters="linearRGB" color-rendering="auto" display="inline" enable-background="accumulate" image-rendering="auto" opacity="1" overflow="visible" shape-rendering="auto" text-rendering="auto" vector-effect="none" visibility="visible"/><text id="text8898" x="-64.681" y="114.004" fill="#fff" fill-opacity="1" stroke="none" stroke-linecap="butt" stroke-linejoin="miter" stroke-opacity="1" stroke-width=".305" font-family="sans-serif" font-size="7.409" font-stretch="normal" font-style="normal" font-variant="normal" font-weight="normal" letter-spacing="0" text-anchor="start" word-spacing="0" xml:space="preserve" style="line-height:4.63092184px;-inkscape-font-specification:sans-serif;text-align:start"><tspan id="tspan8896" x="-64.681" y="114.004" fill="#fff" fill-opacity="1" stroke-width=".305" font-family="sans-serif" font-stretch="normal" font-style="normal" font-variant="normal" font-weight="normal" letter-spacing="0" style="-inkscape-font-specification:sans-serif">4</tspan></text></g><text id="text1006" x="149.278" y="13.964" fill="#000" fill-opacity="1" stroke="none" stroke-linecap="butt" stroke-linejoin="miter" stroke-opacity="1" stroke-width=".265" font-family="Indie Flower" font-size="10.583" font-stretch="normal" font-style="normal" font-variant="normal" font-weight="normal" letter-spacing="0" text-anchor="start" word-spacing="0" xml:space="preserve" style="line-height:6.61458302px;-inkscape-font-specification:'Indie Flower';text-align:start"><tspan style="-inkscape-font-specification:'Indie Flower'" id="tspan1004" x="149.278" y="13.964" stroke-width=".265" font-family="Indie Flower" font-stretch="normal" font-style="normal" font-variant="normal" font-weight="normal">Users</tspan></text><path id="path1025" fill="none" fill-opacity="1" fill-rule="evenodd" stroke="#000" stroke-dasharray="none" stroke-dashoffset="0" stroke-linecap="butt" stroke-linejoin="miter" stroke-miterlimit="4" stroke-opacity="1" stroke-width=".794" marker-end="url(#marker1080)" marker-mid="none" marker-start="none" d="m 160.87745,15.899322 c 0.15323,-0.383066 1.24582,7.923675 -12.72203,11.973675" opacity="1" vector-effect="none" style="marker:none"/><text id="text1636" x="191.082" y="54.445" fill="#000" fill-opacity="1" stroke="none" stroke-linecap="butt" stroke-linejoin="miter" stroke-opacity="1" stroke-width=".265" font-family="Indie Flower" font-size="10.583" font-stretch="normal" font-style="normal" font-variant="normal" font-weight="normal" letter-spacing="0" text-anchor="start" word-spacing="0" xml:space="preserve" style="line-height:6.61458302px;-inkscape-font-specification:'Indie Flower';text-align:start"><tspan id="tspan1634" x="191.082" y="54.445" stroke-width=".265" font-family="Indie Flower" font-stretch="normal" font-style="normal" font-variant="normal" font-weight="normal" style="-inkscape-font-specification:'Indie Flower'">routers</tspan></text><path id="path1638" fill="none" fill-opacity="1" fill-rule="evenodd" stroke="#000" stroke-dasharray="none" stroke-dashoffset="0" stroke-linecap="butt" stroke-linejoin="miter" stroke-miterlimit="4" stroke-opacity="1" stroke-width=".794" marker-end="url(#marker1642)" marker-mid="none" marker-start="none" d="m 207.97328,56.380569 c 0.15323,-0.383066 1.24582,7.923675 -12.72203,11.973675" opacity="1" vector-effect="none" style="marker:none"/><text id="text1826" x="143.722" y="93.868" fill="#000" fill-opacity="1" stroke="none" stroke-linecap="butt" stroke-linejoin="miter" stroke-opacity="1" stroke-width=".265" font-family="Indie Flower" font-size="10.583" font-stretch="normal" font-style="normal" font-variant="normal" font-weight="normal" letter-spacing="0" text-anchor="start" word-spacing="0" xml:space="preserve" style="line-height:9.26041698px;-inkscape-font-specification:'Indie Flower';text-align:start"><tspan id="tspan1830" x="143.722" y="93.868" stroke-width=".265" font-family="Indie Flower" font-stretch="normal" font-style="normal" font-variant="normal" font-weight="normal" style="line-height:9.26041698px;-inkscape-font-specification:'Indie Flower'">L4 load-balancers</tspan><tspan id="tspan2846" x="143.722" y="103.129" stroke-width=".265" font-family="Indie Flower" font-stretch="normal" font-style="normal" font-variant="normal" font-weight="normal" style="line-height:9.26041698px;-inkscape-font-specification:'Indie Flower'">(IPVS)</tspan></text><path id="path1828" fill="none" fill-opacity="1" fill-rule="evenodd" stroke="#000" stroke-dasharray="none" stroke-dashoffset="0" stroke-linecap="butt" stroke-linejoin="miter" stroke-miterlimit="4" stroke-opacity="1" stroke-width=".794" marker-end="url(#marker1834)" marker-mid="none" marker-start="none" d="m 140.63709,90.599473 c 0.38307,-0.15323 -7.92367,-1.24582 -11.97367,12.722027" opacity="1" vector-effect="none" style="marker:none"/><text id="text2842" x="143.722" y="137.26" fill="#000" fill-opacity="1" stroke="none" stroke-linecap="butt" stroke-linejoin="miter" stroke-opacity="1" stroke-width=".265" font-family="Indie Flower" font-size="10.583" font-stretch="normal" font-style="normal" font-variant="normal" font-weight="normal" letter-spacing="0" text-anchor="start" word-spacing="0" xml:space="preserve" style="line-height:9.26041698px;-inkscape-font-specification:'Indie Flower';text-align:start"><tspan style="line-height:9.26041698px;-inkscape-font-specification:'Indie Flower'" id="tspan2840" x="143.722" y="137.26" stroke-width=".265" font-family="Indie Flower" font-stretch="normal" font-style="normal" font-variant="normal" font-weight="normal">L7 load-balancers</tspan><tspan id="tspan2848" x="143.722" y="146.52" stroke-width=".265" font-family="Indie Flower" font-stretch="normal" font-style="normal" font-variant="normal" font-weight="normal" style="line-height:9.26041698px;-inkscape-font-specification:'Indie Flower'">(eg HAProxy)</tspan></text><path id="path2844" fill="none" fill-opacity="1" fill-rule="evenodd" stroke="#000" stroke-dasharray="none" stroke-dashoffset="0" stroke-linecap="butt" stroke-linejoin="miter" stroke-miterlimit="4" stroke-opacity="1" stroke-width=".794" marker-end="url(#marker2852)" marker-mid="none" marker-start="none" d="m 140.63709,135.04951 c 0.38307,-0.15323 -7.92367,-1.24583 -11.97367,12.72203" opacity="1" vector-effect="none" style="marker:none"/><text id="text2936" x="146.632" y="214.518" fill="#000" fill-opacity="1" stroke="none" stroke-linecap="butt" stroke-linejoin="miter" stroke-opacity="1" stroke-width=".265" font-family="Indie Flower" font-size="10.583" font-stretch="normal" font-style="normal" font-variant="normal" font-weight="normal" letter-spacing="0" text-anchor="start" word-spacing="0" xml:space="preserve" style="line-height:9.26041698px;-inkscape-font-specification:'Indie Flower';text-align:start"><tspan style="line-height:9.26041698px;-inkscape-font-specification:'Indie Flower'" id="tspan2934" x="146.632" y="214.518" stroke-width=".265" font-family="Indie Flower" font-stretch="normal" font-style="normal" font-variant="normal" font-weight="normal">web frontends</tspan></text><path id="path2938" fill="none" fill-opacity="1" fill-rule="evenodd" stroke="#000" stroke-dasharray="none" stroke-dashoffset="0" stroke-linecap="butt" stroke-linejoin="miter" stroke-miterlimit="4" stroke-opacity="1" stroke-width=".794" marker-end="url(#marker2944)" marker-mid="none" marker-start="none" d="m 144.34128,210.7204 c 0.38307,-0.15323 -7.92367,-1.24583 -11.97367,12.72203" opacity="1" vector-effect="none" style="marker:none"/></g></svg>